# xmcd
#
# Track frame offsets: 
#        225
#        17962
#        28335
#        47084
#        58432
#        68527
#        85614
#        104061
#        113858
#        125038
#        141653
#        153550
#        166466
#        176903
#        190923
#        210781
#        222646
#        233408
#        245788
#        254330
#
# Disc length: 3533 seconds
#
# Revision: 1
# Processed by: cddbd v1.5.2PL0 Copyright (c) Steve Scherf et al.
# Submitted via: ExactAudioCopy v1.3
#
DISCID=370dca14
DTITLE=Various Artist - The Legends of Road Music CD 2
DYEAR=2000
DGENRE=Country
TTITLE0=Red Sovine - Giddyup Go
TTITLE1=Cowboy Copas - Alabam
TTITLE2=T.H. Music Fest - White Knight 
TTITLE3=David Allan Coe - Papa Loved Mama
TTITLE4=Dave Dudley - Truck Drivin' Son-Of-A-Gun
TTITLE5=David Frizzell - Ballad Of The Bootlegger King
TTITLE6=Minne Pearl - Giddyup Go Answer
TTITLE7=Red Sovine - King Of The Open Road
TTITLE8=Jimmy Martin - Truck Drivin' Man
TTITLE9=Lonnie Irving - Pinball Machine
TTITLE10=Stanley Brothers - How Far To LIttle Rock
TTITLE11=David Allan Coe - California Turn Arounds
TTITLE12=Red Simpson - Hightway Patrol
TTITLE13=David Frizzell - Truck Drivers' Blues 
TTITLE14=Red Sovine - Little Joe
TTITLE15=Willis Brothers - Diesel Smoke On Danger Road
TTITLE16=Jimmy Griggs - Overloaded Diesel
TTITLE17=Red Sovine - Freight Line Fever
TTITLE18=Frankie Miller - Truck Drivin' Buddy
TTITLE19=Red Sovine - Woman Behind The Man Behind The Wheel
EXTD=
EXTT0=
EXTT1=
EXTT2=
EXTT3=
EXTT4=
EXTT5=
EXTT6=
EXTT7=
EXTT8=
EXTT9=
EXTT10=
EXTT11=
EXTT12=
EXTT13=
EXTT14=
EXTT15=
EXTT16=
EXTT17=
EXTT18=
EXTT19=
PLAYORDER=
